<svg width="115" height="115" viewBox="0 0 115 115" fill="none" xmlns="http://www.w3.org/2000/svg">
<path d="M50.3771 12.5916C49.3808 12.7445 48.4504 12.0617 48.3 11.0812C48.1471 10.0849 48.8299 9.15455 49.8262 9.00165C50.8225 8.84874 51.7529 9.53153 51.9058 10.5279C52.0562 11.5084 51.3735 12.4387 50.3771 12.5916Z" fill="#D8D6C5"/>
<path d="M42.1879 16.5652L40.5675 17.3672L32.1279 12.8682L35.5774 19.8372L33.8996 20.6677L29.1655 11.1032L30.8862 10.2515L39.1332 14.6137L35.776 7.83114L37.4537 7.00071L42.1879 16.5652Z" fill="#D8D6C5"/>
<path d="M29.3498 24.1153L27.9367 25.5307L20.8962 21.4409L25.0089 28.4634L23.5959 29.8787L13.8843 24.5014L15.3651 23.0181L22.6547 27.3566L18.3947 19.9835L19.446 18.9305L26.8261 23.1784L22.4643 15.9072L23.9451 14.4239L29.3498 24.1153Z" fill="#D8D6C5"/>
<path d="M11.5222 40.3727C8.66631 38.965 7.56846 35.9087 8.98327 33.0384C10.3981 30.1682 13.4908 29.1775 16.3467 30.5852C19.2026 31.9929 20.3004 35.0492 18.8856 37.9195C17.4708 40.7897 14.3781 41.7805 11.5222 40.3727ZM15.4978 32.3073C13.5173 31.3311 11.4237 31.8511 10.4758 33.7741C9.5208 35.7115 10.3906 37.6744 12.3711 38.6506C14.3372 39.6197 16.4381 39.1212 17.3931 37.1838C18.341 35.2607 17.4639 33.2765 15.4978 32.3073Z" fill="#D8D6C5"/>
<path d="M14.6754 50.3139L13.9837 54.2211L3.47507 52.3609L4.16673 48.4537C4.74683 45.1766 7.31427 43.34 10.4023 43.8867C13.4903 44.4333 15.2555 47.0368 14.6754 50.3139ZM5.42415 50.8048L12.6872 52.0905L13.0526 50.0266C13.457 47.7421 12.0527 46.1287 10.0676 45.7773C8.03519 45.4175 6.20506 46.3934 5.7895 48.7409L5.42415 50.8048Z" fill="#D8D6C5"/>
<path d="M14.3395 62.2039L15.5378 68.6698L5.04452 70.6145L4.7034 68.7738L13.5763 67.1294L12.7191 62.5042L14.3395 62.2039Z" fill="#D8D6C5"/>
<path d="M16.7525 72.1888L19.4471 78.1874L9.71213 82.5603L8.94506 80.8527L17.1767 77.155L15.2492 72.8641L16.7525 72.1888Z" fill="#D8D6C5"/>
<path d="M22.881 91.6212C20.4114 93.6308 17.1755 93.3553 15.1558 90.8732C13.1361 88.3912 13.5241 85.1669 15.9938 83.1573C18.4635 81.1477 21.6993 81.4232 23.719 83.9053C25.7387 86.3873 25.3507 89.6116 22.881 91.6212ZM17.2057 84.6465C15.493 86.0401 15.0933 88.16 16.4465 89.823C17.8098 91.4984 19.9566 91.5256 21.6692 90.132C23.3694 88.7485 23.7917 86.6309 22.4283 84.9555C21.0751 83.2925 18.9059 83.263 17.2057 84.6465Z" fill="#D8D6C5"/>
<path d="M28.9843 89.9033L30.7475 91.151L30.3791 95.7709L31.8941 96.8431L34.1955 93.591L35.7235 94.6724L29.5588 103.384L25.7321 100.676C24.0081 99.4557 23.6797 97.5376 24.8166 95.9312C25.9164 94.377 27.5267 94.262 28.6917 94.8316L28.9843 89.9033ZM26.3838 97.0403C25.7923 97.8761 26.031 98.8683 26.893 99.4783L28.9827 100.957L30.9421 98.1883L28.8524 96.7095C27.9904 96.0995 26.9753 96.2044 26.3838 97.0403Z" fill="#D8D6C5"/>
<path d="M41.4741 96.9958C44.3548 98.063 45.8721 101.014 44.7325 104.09C43.593 107.165 40.5192 108.415 37.6386 107.348C35.5381 106.57 34.682 105.058 34.3765 103.58L36.1603 103.371C36.3347 104.374 37.0614 105.36 38.2167 105.788C40.1221 106.494 42.1539 105.523 42.9321 103.423C43.7103 101.322 42.8015 99.2621 40.896 98.5561C39.7408 98.1281 38.5527 98.3874 37.7613 99.0498L36.5444 97.7287C37.7543 96.8119 39.3737 96.2175 41.4741 96.9958Z" fill="#D8D6C5"/>
<path d="M55.9767 101.815L54.7776 103.125C54.1369 102.262 53.072 101.445 51.5939 101.274C50.0681 101.097 49.3775 101.773 49.2963 102.473C49.1856 103.426 50.2808 103.843 51.5294 104.327C53.2119 104.957 55.1872 105.702 54.9271 107.943C54.7241 109.691 53.0256 110.863 50.7052 110.593C49.0523 110.401 47.7782 109.722 46.9035 108.654L48.1289 107.395C48.8594 108.317 49.9435 108.83 51.056 108.959C52.1527 109.086 52.9129 108.643 53.0051 107.848C53.1011 107.022 52.0517 106.626 50.833 106.163C49.1364 105.515 47.1172 104.732 47.3847 102.428C47.5895 100.664 49.0045 99.2979 51.8652 99.63C53.8201 99.8569 55.1553 100.705 55.9767 101.815Z" fill="#D8D6C5"/>
<path d="M64.1965 101.653C65.1918 101.494 66.1268 102.17 66.284 103.15C66.4437 104.145 65.7673 105.08 64.772 105.24C63.7768 105.399 62.8418 104.723 62.6821 103.728C62.5249 102.748 63.2013 101.813 64.1965 101.653Z" fill="#D8D6C5"/>
<path d="M72.3585 97.624L73.9733 96.8109L82.4436 101.252L78.9464 94.3068L80.6184 93.4649L85.418 102.997L83.7031 103.86L75.4264 99.5545L78.83 106.314L77.158 107.156L72.3585 97.624Z" fill="#D8D6C5"/>
<path d="M85.1445 89.9862L86.5479 88.5612L93.6162 92.6026L89.4555 85.6085L90.8589 84.1835L100.607 89.4942L99.1364 90.9876L91.8172 86.6992L96.1277 94.0429L95.0836 95.1031L87.6746 90.9058L92.0861 98.1469L90.6154 99.6403L85.1445 89.9862Z" fill="#D8D6C5"/>
<path d="M102.86 73.6071C105.726 74.9952 106.845 78.044 105.449 80.9238C104.054 83.8037 100.968 84.8156 98.103 83.4274C95.2375 82.0393 94.1188 78.9905 95.5139 76.1107C96.909 73.2308 99.9949 72.2189 102.86 73.6071ZM98.9401 81.6995C100.927 82.6621 103.017 82.1279 103.952 80.1984C104.894 78.2545 104.01 76.2976 102.023 75.335C100.051 74.3793 97.9532 74.8922 97.0114 76.8361C96.0767 78.7656 96.9674 80.7438 98.9401 81.6995Z" fill="#D8D6C5"/>
<path d="M99.6393 63.6877L100.304 59.7758L110.825 61.564L110.16 65.4759C109.603 68.7569 107.048 70.611 103.956 70.0855C100.865 69.56 99.0817 66.9686 99.6393 63.6877ZM108.887 63.1334L101.615 61.8975L101.264 63.9638C100.875 66.251 102.291 67.8549 104.278 68.1927C106.313 68.5385 108.136 67.5501 108.536 65.1998L108.887 63.1334Z" fill="#D8D6C5"/>
<path d="M99.8937 51.7957L98.6512 45.3382L109.131 43.3217L109.485 45.16L100.623 46.8651L101.512 51.4843L99.8937 51.7957Z" fill="#D8D6C5"/>
<path d="M97.4125 41.8276L94.6769 35.8476L104.382 31.4081L105.16 33.1104L96.9542 36.8644L98.9111 41.142L97.4125 41.8276Z" fill="#D8D6C5"/>
<path d="M91.151 22.4375C93.6069 20.4111 96.8445 20.6644 98.8812 23.1326C100.918 25.6008 100.552 28.8277 98.096 30.8541C95.6401 32.8806 92.4025 32.6273 90.3659 30.1591C88.3292 27.6908 88.6952 24.464 91.151 22.4375ZM96.874 29.3732C98.5771 27.9679 98.9623 25.8454 97.5977 24.1917C96.223 22.5256 94.0761 22.5132 92.373 23.9185C90.6823 25.3136 90.2746 27.434 91.6493 29.1C93.0139 30.7537 95.1833 30.7683 96.874 29.3732Z" fill="#D8D6C5"/>
<path d="M85.0596 24.1972L83.2879 22.9616L83.6247 18.3392L82.1024 17.2775L79.8233 20.5453L78.2879 19.4744L84.3928 10.721L88.238 13.4028C89.9703 14.611 90.3118 16.5268 89.186 18.1409C88.0968 19.7026 86.4874 19.8286 85.3185 19.267L85.0596 24.1972ZM87.6112 17.0426C88.1969 16.2027 87.9514 15.2122 87.0853 14.6081L84.9855 13.1436L83.0451 15.9258L85.1449 17.3903C86.011 17.9943 87.0254 17.8825 87.6112 17.0426Z" fill="#D8D6C5"/>
<path d="M72.5216 17.1904C69.6337 16.1429 68.0962 13.2024 69.2147 10.119C70.3332 7.03556 73.3983 5.76458 76.2862 6.81213C78.3919 7.57596 79.2584 9.08168 79.574 10.5578L77.7916 10.7793C77.6104 9.77741 76.8769 8.7965 75.7188 8.37639C73.8086 7.68349 71.7835 8.66794 71.0196 10.7737C70.2558 12.8794 71.1788 14.9333 73.089 15.6262C74.2471 16.0463 75.4335 15.7788 76.2203 15.1111L77.4462 16.4238C76.2426 17.3488 74.6273 17.9543 72.5216 17.1904Z" fill="#D8D6C5"/>
<path d="M57.9863 12.4708L59.1764 11.1522C59.823 12.0114 60.8935 12.8204 62.3727 12.9818C63.8997 13.1485 64.5857 12.4669 64.6621 11.7671C64.7663 10.8128 63.6682 10.4032 62.4163 9.92855C60.7295 9.30984 58.7492 8.57862 58.994 6.33594C59.185 4.58634 60.8754 3.40279 63.1976 3.65628C64.8518 3.83686 66.1305 4.50759 67.0125 5.56957L65.7958 6.83702C65.059 5.91964 63.9714 5.41464 62.858 5.2931C61.7605 5.17329 61.0034 5.62178 60.9165 6.41705C60.8263 7.24414 61.8783 7.6326 63.1001 8.08788C64.8011 8.72422 66.8257 9.49246 66.5739 11.7988C66.3812 13.5643 64.9756 14.9399 62.1126 14.6273C60.1563 14.4138 58.8153 13.5753 57.9863 12.4708Z" fill="#D8D6C5"/>
<circle cx="57" cy="57" r="6" fill="#D8D6C5"/>
</svg>
